<?xml version="1.0" standalone="no"?>
<!DOCTYPE svg PUBLIC "-//W3C//DTD SVG 20010904//EN"
 "http://www.w3.org/TR/2001/REC-SVG-20010904/DTD/svg10.dtd">
<svg version="1.0" xmlns="http://www.w3.org/2000/svg"
 width="995.000000pt" height="1280.000000pt" viewBox="0 0 995.000000 1280.000000"
 preserveAspectRatio="xMidYMid meet">
<g transform="translate(0.000000,1280.000000) scale(0.100000,-0.100000)"
fill="#000000" stroke="none">
<path d="M4505 12764 c-67 -61 -155 -114 -228 -135 -96 -30 -215 -23 -424 25
-90 20 -222 43 -295 51 -73 9 -155 22 -183 29 -118 32 -171 27 -215 -19 -36
-38 -36 -108 0 -375 36 -272 41 -295 83 -373 62 -118 144 -175 422 -292 228
-96 307 -149 503 -336 l122 -116 -10 -145 c-15 -223 -33 -288 -114 -401 -47
-66 -140 -249 -168 -333 -22 -63 -121 -162 -225 -222 -78 -46 -135 -101 -156
-152 -21 -52 -163 -197 -272 -280 -101 -77 -133 -116 -220 -267 -67 -117 -161
-213 -250 -254 l-67 -32 -172 6 c-316 11 -446 47 -821 225 -283 134 -369 159
-691 206 -376 55 -539 111 -655 226 -46 45 -60 67 -78 125 -49 152 -129 261
-242 328 -79 46 -89 46 -89 3 0 -21 -6 -36 -15 -40 -8 -3 -15 -16 -15 -28 0
-13 -7 -60 -16 -106 -16 -78 -16 -87 1 -145 9 -34 22 -72 27 -84 7 -15 7 -31
-1 -54 -26 -75 -7 -188 51 -304 63 -125 103 -155 204 -155 45 0 108 -10 170
-26 55 -14 150 -36 213 -49 180 -38 261 -89 261 -166 0 -26 21 -51 53 -62 10
-4 45 3 77 14 102 35 149 18 530 -193 74 -41 235 -128 358 -193 122 -65 222
-122 222 -126 0 -15 -39 -18 -290 -23 -212 -4 -270 -9 -430 -35 -491 -82 -648
-46 -813 185 -20 28 -57 70 -82 93 -47 43 -201 125 -217 115 -4 -3 1 -23 13
-44 l22 -39 -27 -31 c-30 -36 -32 -53 -10 -105 14 -33 14 -39 0 -61 -15 -22
-14 -25 11 -48 25 -23 26 -27 15 -64 -16 -53 -15 -102 3 -145 20 -47 60 -94
88 -101 15 -3 30 -20 42 -46 32 -71 41 -73 375 -81 370 -9 467 -27 485 -91 17
-60 28 -78 49 -78 21 0 33 7 116 65 42 29 47 30 144 28 56 -1 151 -8 211 -17
192 -27 624 -47 1305 -59 l125 -2 52 -140 c104 -278 248 -532 433 -765 96
-122 404 -432 538 -543 51 -43 156 -124 232 -182 78 -59 161 -131 191 -167 82
-96 154 -163 269 -252 58 -45 157 -126 220 -180 63 -55 157 -131 208 -169 99
-74 167 -152 183 -212 6 -20 35 -72 65 -116 65 -96 95 -154 141 -273 53 -136
88 -201 129 -234 l37 -30 -13 -232 c-7 -127 -9 -257 -5 -287 4 -31 10 -225 15
-432 7 -356 9 -381 33 -476 88 -343 324 -892 522 -1209 124 -199 146 -247 214
-471 77 -253 93 -331 73 -363 -5 -7 -39 -18 -76 -23 -84 -13 -125 -30 -171
-70 -38 -33 -44 -49 -20 -49 21 0 19 -23 -5 -53 -25 -31 -25 -46 -2 -54 9 -3
36 -27 58 -52 39 -44 45 -46 105 -51 l64 -5 -1 -36 c-2 -84 -94 -304 -155
-374 -42 -48 -71 -61 -149 -68 -121 -11 -452 -121 -475 -157 -11 -18 14 -30
62 -30 38 0 43 -3 48 -27 9 -45 47 -114 71 -129 40 -27 82 -33 144 -22 49 10
68 9 111 -5 28 -9 73 -17 100 -17 73 0 316 57 352 82 35 25 66 90 67 138 0 55
15 98 131 381 171 420 262 704 356 1117 39 170 47 225 47 307 1 95 -1 104 -38
185 -55 122 -105 269 -127 374 -23 109 -43 520 -29 612 19 134 108 311 305
609 62 94 128 199 148 235 l35 65 5 225 c4 223 4 226 36 315 43 118 73 168
117 196 36 22 40 22 149 11 62 -7 142 -12 179 -12 37 0 76 -5 87 -11 16 -8 25
-7 40 7 16 14 23 15 45 5 38 -17 98 -5 176 35 14 8 36 14 48 14 12 0 30 4 40
10 10 5 63 12 117 14 166 8 333 53 333 90 0 14 69 60 151 101 21 11 42 27 45
37 3 10 16 21 29 24 13 3 31 14 41 25 9 10 23 19 31 19 7 0 13 9 13 20 0 11 8
24 19 28 19 7 111 104 111 117 0 4 18 27 40 52 22 25 40 54 40 63 0 10 8 28
18 41 25 36 41 61 52 87 26 58 32 70 61 116 23 38 29 57 25 81 -4 19 -1 38 8
51 8 11 18 45 21 75 4 30 15 72 24 94 30 68 41 109 33 116 -12 12 -250 80
-301 86 -162 19 -252 -57 -386 -327 -127 -255 -228 -348 -430 -400 -169 -43
-379 -43 -577 0 -113 24 -138 38 -184 102 -22 29 -79 98 -128 153 -49 55 -132
152 -183 215 -51 63 -119 147 -150 186 -32 40 -91 114 -131 165 -104 136 -288
357 -354 428 -32 34 -76 93 -98 131 -36 62 -100 150 -324 444 -37 49 -75 105
-83 125 -68 161 -106 225 -187 325 -37 46 -45 64 -51 113 -13 119 -27 179 -56
241 -19 41 -33 91 -39 140 -5 43 -25 122 -44 177 -20 55 -52 159 -71 230 -19
72 -46 167 -59 211 -15 50 -31 144 -41 244 -27 272 -44 321 -154 445 -79 88
-76 55 -34 295 27 163 112 548 170 775 l38 150 -1 215 c-1 210 -2 218 -34 335
-56 207 -59 225 -67 460 l-8 230 -33 69 c-18 38 -61 112 -96 165 -74 112 -87
138 -111 209 -25 77 -54 107 -133 133 -83 27 -117 44 -163 80 -42 33 -65 36
-97 13 -21 -14 -29 -13 -110 9 -160 46 -201 51 -592 72 l-95 5 -40 -36z"/>
</g>
</svg>
